<?xml version="1.0" encoding="utf-8"?>
<svg viewBox="297.2994 234.106 29.25 34.2351" xmlns="http://www.w3.org/2000/svg">
  <path d="M 20 36.38 C 20 28.45 20.08 23.782 20.23 23.762 C 20.35 23.762 19.589 23.079 21.58 24.83 C 23.635 26.638 30.083 31.426 34.312 33.173 C 38.472 34.891 46.47 35.83 47.55 34.55 C 47.9 34.13 48.17 26.73 47.88 25.58 C 47.5 24.05 46.219 23.899 44.633 23.866 C 41.692 23.804 40.493 25.122 40.45 25 C 40.361 24.745 40.288 17.217 40.47 16.4 C 40.685 15.436 42.1 14.93 44.13 14.8 C 46.2 14.65 47.83 15.05 48.65 15.88 C 49.25 16.48 49.25 16.48 49.25 30.2 C 49.25 37.78 49.175 44.337 49.096 44.46 C 49.041 44.546 39.91 44.326 33.663 42.659 C 26.738 40.811 21.45 36.75 21.38 36.75 C 21.3 36.75 21.25 39.5 21.25 42.88 C 21.25 46.372 21.211 48.879 21.179 48.942 C 21.133 49.033 20.896 48.996 20.63 49 C 20.4 49.004 20.103 48.999 20.072 48.961 C 20.041 48.923 20 44.614 20 36.38" transform="matrix(1, 0, 0, 1, 277.299437045913, 219.336973966048)" fill="black"/>
</svg>